<svg xmlns="http://www.w3.org/2000/svg" version="1.1" xmlns:xlink="http://www.w3.org/1999/xlink" xmlns:svgjs="http://svgjs.com/svgjs" width="1440" height="560" preserveAspectRatio="none" viewBox="0 0 1440 560"><g mask="url(&quot;#SvgjsMask1005&quot;)" fill="none"><rect width="1440" height="560" x="0" y="0" fill="rgba(46, 14, 71, 1)"></rect><path d="M 0,117 C 57.6,135 172.8,222.2 288,207 C 403.2,191.8 460.8,39 576,41 C 691.2,43 748.8,204.8 864,217 C 979.2,229.2 1036.8,113 1152,102 C 1267.2,91 1382.4,150 1440,162L1440 560L0 560z" fill="rgba(77, 22, 120, 1)"></path><path d="M 0,369 C 96,395.8 288,517.2 480,503 C 672,488.8 768,304.8 960,298 C 1152,291.2 1344,434.8 1440,469L1440 560L0 560z" fill="rgba(98, 28, 153, 1)"></path></g><defs><mask id="SvgjsMask1005"><rect width="1440" height="560" fill="#ffffff"></rect></mask></defs></svg>